<?xml version="1.0" encoding="UTF-8"?>
<svg id="Layer_2" data-name="Layer 2" xmlns="http://www.w3.org/2000/svg" viewBox="0 0 485.08 358.3">
  <defs>
    <style>
      .cls-1 {
        fill: #fff;
        stroke-width: 0px;
      }
    </style>
  </defs>
  <path class="cls-1" d="M117.32,11.8v111.84c0,3.02,2.45,5.47,5.47,5.47h0c3.02,0,5.47,2.45,5.47,5.47v11.81c0,3.02-2.45,5.47-5.47,5.47h-10.67c-3.02,0-5.47-2.45-5.47-5.47v-.34c0-3.03-2.46-5.48-5.48-5.47l-95.71.21c-4.08,0-6.71,4.32-4.86,7.96l102.03,199.97c2.6,5.09,10.27,3.29,10.34-2.42l1.46-123.55c.04-3,2.47-5.41,5.47-5.41h65.73c3.02,0,5.47-2.45,5.47-5.47v-15.64c0-3.08,2.54-5.55,5.61-5.47l13.75.35c4.14.11,6.89-4.24,5.02-7.93L127.67,9.33c-2.6-5.14-10.35-3.29-10.35,2.47Z"/>
  <path class="cls-1" d="M158.61,25.51c-3.03-7.88-2.58-16.44,5.13-22.05,4.5-3.27,9.44-3.2,14.82-3.36,6.36-.19,12.72-.07,19.08-.01,33.35.3,66.68-.05,100.03.54,7.1.13,14.2.27,21.29.44,48.76,1.14,97.41,30.46,126.99,68.43,33.14,42.52,50.01,106.88,31.43,158.98-4.83,13.55-9.44,27.52-16.26,40.25-14.22,26.53-37.37,49.43-63.02,65.17-19.07,11.7-40.52,19.65-62.72,22.67-23.59,3.21-48.35.97-72.14.96-6.86,0-13.72,0-20.57.01-21.94.05-43.89.09-65.83.14l-17.27.04c-9.68.02-17.51-7.88-17.4-17.57l.98-84.78c.11-9.52,7.86-17.17,17.39-17.17,25.28.02,50.55-.02,75.83.03,12.47.03,24.94.05,37.41.08,12.1.02,24.25.42,36.33-.36,7.99-.51,16.14-2.03,23.25-5.88s13.25-9.54,18.29-15.99c4.11-5.26,7.7-11.02,9.84-17.34,2.23-6.58,2.84-13.64,2.42-20.58-1.09-18.15-9.79-36.23-24.85-46.43-11.53-7.81-25.79-10.56-39.7-11.23-26.99-1.3-54.38-.04-81.43-.04-8.57,0-13.52-5.67-17.14-12.69-10.48-20.33-20.97-40.65-31.45-60.98-3.1-6.01-6.19-12.04-9.28-18.06-.54-1.06-1.03-2.13-1.45-3.23Z"/>
  <g>
    <rect class="cls-1" x="216.35" y="144.08" width="21" height="21" rx="4.94" ry="4.94"/>
    <rect class="cls-1" x="287.7" y="208.07" width="18.64" height="18.64" rx="4.94" ry="4.94"/>
    <rect class="cls-1" x="262.54" y="135.94" width="18.64" height="18.64" rx="4.94" ry="4.94"/>
    <rect class="cls-1" x="298.62" y="164.16" width="20.8" height="20.8" rx="4.94" ry="4.94"/>
    <rect class="cls-1" x="208.53" y="202.19" width="24.93" height="24.93" rx="4.94" ry="4.94"/>
    <rect class="cls-1" x="251.67" y="178.09" width="27.1" height="27.1" rx="4.94" ry="4.94"/>
  </g>
</svg>