<?xml version="1.0" encoding="UTF-8"?>
<svg xmlns="http://www.w3.org/2000/svg" viewBox="0 0 493.08 366.29">
  <defs>
    <style>
      .cls-1 {
        fill: none;
        stroke: #fff;
        stroke-miterlimit: 10;
        stroke-width: 8px;
      }
    </style>
  </defs>
  <g id="Layer_1" data-name="Layer 1">
    <path class="cls-1" d="M162.77,29.27c-3.27-8.16-1.32-18.07,6.82-22.39,7.42-3.87,16.19-2.59,24.28-2.88,40.96.42,82.19-.1,123.13.91,95.37.19,174.26,90.04,172.04,184.07.02,23-7.33,44.39-15.61,65.41-15.66,41.6-50.33,75.32-90.58,93.63-35.51,17.13-75.59,14.47-113.84,13.54-30.36-.06-60.58.11-90.91.14-15.92.68-31.42.17-31.93-19.84.25-12.16.69-70.48.99-81.99.33-7.85,6.55-16.06,14.98-17.09,53.12-2.64,106.54,2.16,159.5-1.77,17.49-2.36,31.6-15.06,40-30.05,8.93-15.75,7.71-35.56.5-51.81-9.18-22.37-32.8-33.62-55.97-34.45-27.93-1.89-56.1.17-84.13-.51-9.69-.25-15.55-8.53-19.36-16.51-13.13-26.17-27.5-51.75-39.84-78.23l-.07-.18Z"/>
  </g>
  <g id="Layer_2" data-name="Layer 2">
    <path class="cls-1" d="M121.32,15.8v111.84c0,3.02,2.45,5.47,5.47,5.47h0c3.02,0,5.47,2.45,5.47,5.47v11.81c0,3.02-2.45,5.47-5.47,5.47h-10.67c-3.02,0-5.47-2.45-5.47-5.47v-.34c0-3.03-2.46-5.48-5.48-5.47l-95.71.21c-4.08,0-6.71,4.32-4.86,7.96l102.03,199.97c2.6,5.09,10.27,3.29,10.34-2.42l1.46-123.55c.04-3,2.47-5.41,5.47-5.41h65.73c3.02,0,5.47-2.45,5.47-5.47v-15.64c0-3.08,2.54-5.55,5.61-5.47l13.75.35c4.14.11,6.89-4.24,5.02-7.93L131.67,13.33c-2.6-5.14-10.35-3.29-10.35,2.47Z"/>
  </g>
</svg>