<?xml version="1.0" encoding="UTF-8"?>
<svg id="Layer_2" data-name="Layer 2" xmlns="http://www.w3.org/2000/svg" viewBox="0 0 468 345.67">
  <defs>
    <style>
      .cls-1 {
        fill: #000;
        stroke-width: 0px;
      }

      .cls-2 {
        opacity: .75;
      }
    </style>
  </defs>
  <g class="cls-2">
    <path class="cls-1" d="M153.18,24.38c-3.16-7.87-1.27-17.44,6.58-21.6,7.16-3.74,15.62-2.5,23.42-2.78,39.52.41,79.3-.1,118.79.88,92.01.19,168.12,86.87,165.98,177.59.02,22.19-7.07,42.83-15.06,63.11-15.11,40.13-48.56,72.67-87.39,90.34-34.26,16.53-72.93,13.96-109.83,13.06-29.3-.05-58.45.1-87.71.14-15.36.65-30.31.16-30.81-19.14.24-11.73.67-67.99.95-79.11.31-7.57,6.32-15.5,14.45-16.49,51.25-2.55,102.79,2.08,153.88-1.71,16.87-2.28,30.49-14.53,38.59-28.99,8.61-15.19,7.44-34.31.49-49.98-8.86-21.58-31.64-32.44-54-33.24-26.95-1.83-54.12.16-81.16-.49-9.35-.24-15.01-8.23-18.67-15.93-12.67-25.25-26.53-49.93-38.44-75.48l-.06-.18Z"/>
    <path class="cls-1" d="M113.19,11.38v107.9c0,2.91,2.36,5.28,5.28,5.28h0c2.91,0,5.28,2.36,5.28,5.28v11.39c0,2.91-2.36,5.28-5.28,5.28h-10.29c-2.91,0-5.28-2.36-5.28-5.28v-.33c0-2.92-2.37-5.28-5.29-5.28l-92.34.2c-3.94,0-6.48,4.17-4.69,7.68l98.44,192.92c2.51,4.91,9.91,3.18,9.98-2.34l1.41-119.2c.03-2.89,2.39-5.21,5.28-5.21h63.41c2.91,0,5.28-2.36,5.28-5.28v-15.09c0-2.97,2.45-5.35,5.41-5.28l13.27.34c3.99.1,6.65-4.09,4.85-7.65L123.18,9c-2.51-4.96-9.99-3.18-9.99,2.38Z"/>
  </g>
</svg>