<?xml version="1.0" encoding="UTF-8"?>
<svg id="Layer_2" data-name="Layer 2" xmlns="http://www.w3.org/2000/svg" viewBox="0 0 488 488">
  <defs>
    <style>
      .cls-1 {
        fill: #232323;
      }

      .cls-1, .cls-2 {
        stroke-width: 0px;
      }

      .cls-2 {
        fill: #fff;
      }
    </style>
  </defs>
  <rect class="cls-1" width="488" height="488" rx="100" ry="100"/>
  <g>
    <path class="cls-2" d="M171.12,110.14c-2.85-7.1-1.15-15.72,5.93-19.48,6.46-3.37,14.09-2.25,21.12-2.51,35.63.37,71.5-.09,107.12.79,82.97.17,151.6,78.33,149.67,160.13.02,20.01-6.38,38.62-13.58,56.9-13.63,36.19-43.79,65.53-78.8,81.46-30.9,14.91-65.76,12.59-99.03,11.78-26.42-.05-52.7.09-79.09.12-13.85.59-27.33.15-27.78-17.26.22-10.58.6-61.31.86-71.33.28-6.83,5.7-13.97,13.03-14.86,46.21-2.3,92.68,1.88,138.75-1.54,15.22-2.05,27.49-13.11,34.8-26.14,7.77-13.7,6.71-30.93.44-45.07-7.99-19.46-28.53-29.25-48.7-29.97-24.3-1.65-48.8.15-73.19-.44-8.43-.22-13.53-7.42-16.84-14.37-11.42-22.77-23.93-45.02-34.66-68.06l-.06-.16Z"/>
    <path class="cls-2" d="M135.06,98.42v97.29c0,2.63,2.13,4.76,4.76,4.76h0c2.63,0,4.76,2.13,4.76,4.76v10.27c0,2.63-2.13,4.76-4.76,4.76h-9.28c-2.63,0-4.76-2.13-4.76-4.76v-.3c0-2.63-2.14-4.76-4.77-4.76l-83.26.18c-3.55,0-5.84,3.76-4.23,6.92l88.77,173.96c2.26,4.43,8.94,2.86,9-2.11l1.27-107.49c.03-2.61,2.15-4.7,4.76-4.7h57.18c2.63,0,4.76-2.13,4.76-4.76v-13.61c0-2.68,2.21-4.83,4.88-4.76l11.96.31c3.6.09,5.99-3.69,4.37-6.9l-76.4-151.22c-2.26-4.47-9.01-2.86-9.01,2.15Z"/>
  </g>
</svg>