<?xml version="1.0" encoding="UTF-8"?>
<svg id="Layer_2" data-name="Layer 2" xmlns="http://www.w3.org/2000/svg" viewBox="0 0 487.4 360">
  <defs>
    <style>
      .cls-1 {
        fill: #000;
        stroke-width: 0px;
      }
    </style>
  </defs>
  <path class="cls-1" d="M159.53,25.39c-3.29-8.2-1.33-18.16,6.85-22.5,7.46-3.89,16.27-2.6,24.39-2.89,41.15.42,82.59-.1,123.72.91,95.82.19,175.09,90.47,172.86,184.95.02,23.11-7.37,44.6-15.69,65.72-15.74,41.8-50.57,75.68-91.02,94.08-35.68,17.22-75.95,14.54-114.38,13.6-30.51-.06-60.87.11-91.34.14-16,.68-31.57.17-32.09-19.93.25-12.22.69-70.81.99-82.39.33-7.89,6.59-16.14,15.05-17.17,53.37-2.66,107.05,2.17,160.26-1.78,17.57-2.37,31.76-15.14,40.19-30.19,8.97-15.82,7.74-35.73.51-52.06-9.23-22.48-32.95-33.78-56.24-34.61-28.07-1.9-56.37.17-84.53-.51-9.74-.25-15.63-8.57-19.45-16.59-13.19-26.3-27.63-52-40.03-78.61l-.07-.18Z"/>
  <path class="cls-1" d="M117.88,11.85v112.37c0,3.04,2.46,5.5,5.5,5.5h0c3.04,0,5.5,2.46,5.5,5.5v11.86c0,3.04-2.46,5.5-5.5,5.5h-10.72c-3.04,0-5.5-2.46-5.5-5.5v-.34c0-3.04-2.47-5.5-5.51-5.5l-96.16.21c-4.1,0-6.75,4.34-4.88,7.99l102.52,200.92c2.61,5.11,10.32,3.31,10.39-2.43l1.47-124.15c.04-3.01,2.49-5.43,5.5-5.43h66.04c3.04,0,5.5-2.46,5.5-5.5v-15.72c0-3.09,2.55-5.57,5.64-5.49l13.82.35c4.16.11,6.92-4.26,5.05-7.97L128.28,9.37c-2.61-5.17-10.4-3.31-10.4,2.48Z"/>
</svg>